<svg width="26" height="26" viewBox="0 0 26 26" fill="none" xmlns="http://www.w3.org/2000/svg">
<path d="M14.4132 0H2.54339C1.14071 0 0 1.14111 0 2.54339V11.0222C0 12.4249 1.14111 13.5656 2.54339 13.5656H3.39127V16.109C3.39127 16.4521 3.59766 16.761 3.91457 16.8921C4.22621 17.0218 4.59302 16.9539 4.83872 16.708L7.98153 13.5652H14.4135C15.8162 13.5652 16.9569 12.4241 16.9569 11.0218V2.544C16.9565 1.14132 15.8154 0.000210341 14.4131 0.000210341L14.4132 0ZM5.08652 7.63041C4.61799 7.63041 4.23864 7.25089 4.23864 6.78253C4.23864 6.31399 4.61817 5.93465 5.08652 5.93465C5.55506 5.93465 5.9344 6.31417 5.9344 6.78253C5.9344 7.25087 5.55449 7.63041 5.08652 7.63041ZM9.32582 6.78293C9.32582 7.25147 8.9463 7.63081 8.47794 7.63081C8.0094 7.63081 7.63006 7.25129 7.63006 6.78293C7.63006 6.3144 8.00958 5.93505 8.47794 5.93505C8.94628 5.93486 9.32582 6.31438 9.32582 6.78293ZM11.8692 7.63041C11.4007 7.63041 11.0213 7.25089 11.0213 6.78253C11.0213 6.31399 11.4008 5.93465 11.8692 5.93465C12.3377 5.93465 12.7171 6.31417 12.7171 6.78253C12.7171 7.25087 12.3376 7.63041 11.8692 7.63041Z" fill="#838385"/>
<path d="M24.3298 9.19889C24.0573 9.09892 23.7633 9.04414 23.4565 9.04414H17.8454V11.0222C17.8454 12.9149 16.3056 14.4543 14.4133 14.4543H9.04352V20.0654C9.04352 21.4673 10.1854 22.6088 11.5869 22.6088H18.0194L21.1622 25.7516C21.3251 25.9146 21.5417 26.0028 21.7696 26.0001C21.8731 25.9987 21.9791 25.9785 22.0838 25.9382C22.4001 25.8025 22.6093 25.4975 22.6093 25.1526V22.6092H23.4571C24.859 22.6092 26.0005 21.4673 26.0005 20.0658V11.5875C26.0005 10.492 25.3037 9.5555 24.33 9.19847L24.3298 9.19889ZM14.1302 16.6745C13.6617 16.6745 13.2824 16.295 13.2824 15.8267C13.2824 15.3581 13.6619 14.9788 14.1302 14.9788C14.5988 14.9788 14.9781 15.3583 14.9781 15.8267C14.9783 16.295 14.5984 16.6745 14.1302 16.6745ZM18.3695 15.8267C18.3695 16.2952 17.99 16.6745 17.5217 16.6745C17.0531 16.6745 16.6738 16.295 16.6738 15.8267C16.6738 15.3581 17.0533 14.9788 17.5217 14.9788C17.9896 14.9792 18.3695 15.3585 18.3695 15.8267ZM20.9129 16.6745C20.4444 16.6745 20.065 16.295 20.065 15.8267C20.065 15.3581 20.4446 14.9788 20.9129 14.9788C21.3815 14.9788 21.7608 15.3583 21.7608 15.8267C21.7608 16.295 21.3813 16.6745 20.9129 16.6745Z" fill="#838385"/>
</svg>
