<svg width="22" height="22" viewBox="0 0 22 22" fill="none" xmlns="http://www.w3.org/2000/svg">
<path d="M8.06639 6.07786L4.38621 9.72634H15.45C16.1675 9.72634 16.7231 10.3 16.7231 10.9884C16.7231 11.6769 16.1444 12.2505 15.45 12.2505H4.38621L8.06639 15.899C8.32101 16.1514 8.43677 16.4727 8.43677 16.7939C8.43677 17.1152 8.321 17.4364 8.06639 17.6889C7.55718 18.1937 6.74699 18.1937 6.261 17.6889L0.38191 11.8834C-0.127303 11.3785 -0.127303 10.5753 0.38191 10.0935L6.23786 4.28803C6.74707 3.7832 7.55726 3.7832 8.04325 4.28803C8.55246 4.76982 8.55246 5.573 8.06633 6.07786H8.06639Z" fill="#838385"/>
<path d="M14.2925 19.892C14.2925 19.1807 14.8711 18.6299 15.5656 18.6299H19.454V3.37042L15.5656 3.37026C14.8481 3.37026 14.2925 2.79659 14.2925 2.10815C14.2925 1.39685 14.8711 0.846046 15.5656 0.846046L20.7271 0.846207C21.4446 0.846207 22.0002 1.41987 22.0002 2.10831V19.8919C22.0002 20.6033 21.4215 21.1541 20.7271 21.1541L15.5656 21.1539C14.8481 21.1539 14.2925 20.5802 14.2925 19.892V19.892Z" fill="#838385"/>
</svg>
