<svg width="25" height="25" viewBox="0 0 25 25" fill="none" xmlns="http://www.w3.org/2000/svg">
<path d="M11.9194 18.493H4.10756C3.65904 18.493 3.29529 18.1261 3.29529 17.6731C3.29529 17.2201 3.65902 16.8531 4.10756 16.8531H12.1959C12.4809 15.8827 12.9698 15.0009 13.6127 14.2568H11.0985C10.65 14.2568 10.2862 13.8898 10.2862 13.4368C10.2862 12.9841 10.6499 12.6169 11.0985 12.6169H14.8768C15.0651 12.6169 15.2362 12.6842 15.3739 12.7926C16.24 12.2876 17.2239 11.9676 18.2734 11.885V0.980152C18.2734 0.678366 18.0309 0.433594 17.7319 0.433594H1.25261C0.953658 0.433594 0.711182 0.678376 0.711182 0.980152V21.5638C0.711182 21.8658 0.953668 22.1104 1.25261 22.1104H12.7257C12.2067 21.1322 11.9113 20.0158 11.9113 18.8308C11.9111 18.7174 11.9144 18.6049 11.9196 18.493L11.9194 18.493ZM8.67619 14.2568H7.30813C6.85961 14.2568 6.49587 13.8898 6.49587 13.4368C6.49587 12.9841 6.85959 12.6169 7.30813 12.6169H8.67619C9.12471 12.6169 9.48845 12.984 9.48845 13.4368C9.48827 13.8898 9.12473 14.2568 8.67619 14.2568ZM15.6888 9.20066C15.6888 9.65343 15.3253 10.0206 14.8766 10.0206H9.49174C9.04322 10.0206 8.67948 9.65345 8.67948 9.20066C8.67948 8.74789 9.04321 8.3807 9.49174 8.3807H14.8766C15.3253 8.38089 15.6888 8.74788 15.6888 9.20066ZM5.92528 4.05084H13.0578C13.5065 4.05084 13.8701 4.41801 13.8701 4.8708C13.8701 5.32357 13.5065 5.69076 13.0578 5.69076H5.92528C5.47676 5.69076 5.11302 5.32358 5.11302 4.8708C5.11302 4.41803 5.47675 4.05084 5.92528 4.05084ZM4.10703 8.3809H6.76607C7.2146 8.3809 7.57834 8.74807 7.57834 9.20086C7.57834 9.65363 7.21461 10.0208 6.76607 10.0208H4.10703C3.6585 10.0208 3.29476 9.65364 3.29476 9.20086C3.29476 8.7479 3.6583 8.3809 4.10703 8.3809ZM4.10703 12.617H4.87095C5.31947 12.617 5.68321 12.9841 5.68321 13.4369C5.68321 13.8899 5.31948 14.2569 4.87095 14.2569H4.10703C3.6585 14.2569 3.29476 13.8899 3.29476 13.4369C3.29476 12.9841 3.6583 12.617 4.10703 12.617ZM18.8145 13.2281C15.7492 13.2281 13.2643 15.7366 13.2643 18.8309C13.2643 21.9252 15.7492 24.4336 18.8145 24.4336C21.8797 24.4336 24.3646 21.9252 24.3646 18.8309C24.3646 15.7366 21.8797 13.2281 18.8145 13.2281ZM21.6561 19.5141H18.8145C18.4405 19.5141 18.1376 19.2083 18.1376 18.8309V15.8883C18.1376 15.5108 18.4405 15.205 18.8145 15.205C19.1884 15.205 19.4913 15.5108 19.4913 15.8883V18.1476H21.6561C22.03 18.1476 22.333 18.4534 22.333 18.8309C22.333 19.2083 22.03 19.5141 21.6561 19.5141Z" fill="#01AAAD"/>
</svg>
