<svg width="21" height="22" viewBox="0 0 21 22" fill="none" xmlns="http://www.w3.org/2000/svg">
<path d="M2.4231 0.5H7.2693C8.60759 0.5 9.6924 1.83829 9.6924 2.9231V7.7693C9.6924 9.10759 8.60759 10.1924 7.2693 10.1924H2.4231C1.08481 10.1924 0 8.85411 0 7.7693V2.9231C0 1.58481 1.08481 0.5 2.4231 0.5Z" fill="#838385"/>
<path d="M13.7307 0.5H18.5769C19.9152 0.5 21 1.83829 21 2.9231V7.7693C21 9.10759 19.9152 10.1924 18.5769 10.1924H13.7307C12.3924 10.1924 11.3076 8.85411 11.3076 7.7693V2.9231C11.3076 1.58481 12.3924 0.5 13.7307 0.5Z" fill="#838385"/>
<path d="M2.4231 11.8076H7.2693C8.60759 11.8076 9.6924 13.1459 9.6924 14.2307V19.0769C9.6924 20.4152 8.60759 21.5 7.2693 21.5H2.4231C1.08481 21.5 0 20.1617 0 19.0769V14.2307C0 12.8924 1.08481 11.8076 2.4231 11.8076Z" fill="#838385"/>
<path d="M21 16.6538C21 19.3302 18.8302 21.5 16.1538 21.5C13.4774 21.5 11.3076 19.3302 11.3076 16.6538C11.3076 13.9774 13.4774 11.8076 16.1538 11.8076C18.8302 11.8076 21 13.9774 21 16.6538Z" fill="#838385"/>
</svg>
