<svg width="21" height="21" viewBox="0 0 21 21" fill="none" xmlns="http://www.w3.org/2000/svg">
<path d="M16.2747 5.63409C16.2747 2.53534 13.6759 0 10.4997 0C7.32342 0 4.72467 2.53534 4.72467 5.63409C4.72467 8.73284 7.32342 11.2682 10.4997 11.2682C13.6759 11.2682 16.2747 8.73284 16.2747 5.63409Z" fill="#838385"/>
<path d="M12.7837 12.4464C12.0487 12.6769 11.2875 12.805 10.5 12.805C9.7125 12.805 8.95125 12.6769 8.21625 12.4464C5.90625 11.7038 3.33375 12.3184 1.81125 14.1367C0.6825 15.494 0 17.2354 0 19.1049C0 20.1549 0.86625 21 1.9425 21H19.0575C20.1337 21 21 20.1549 21 19.1049C21 17.2354 20.3175 15.494 19.1887 14.1367C17.64 12.3184 15.0938 11.7038 12.7837 12.4464Z" fill="#838385"/>
</svg>
