<svg width="184" height="20" viewBox="0 0 184 20" fill="none" xmlns="http://www.w3.org/2000/svg">
<path d="M31.192 10.384C31.192 11.856 30.904 13.176 30.328 14.344C29.624 15.8 28.528 16.952 27.04 17.8C25.264 18.792 23.016 19.288 20.296 19.288H19.24C15.8 19.288 13.144 18.512 11.272 16.96C10.488 16.304 9.864 15.552 9.4 14.704C8.952 13.856 8.648 12.968 8.488 12.04H5.848V19H0.112V1.144H5.848V7.6H8.56C9.008 5.648 9.984 4.104 11.488 2.968C13.376 1.56 15.96 0.855999 19.24 0.855999H20.296C23.016 0.855999 25.256 1.336 27.016 2.296C28.488 3.112 29.584 4.24 30.304 5.68C30.896 6.864 31.192 8.192 31.192 9.664V10.384ZM25.216 9.856C25.216 8.64 24.88 7.64 24.208 6.856C23.296 5.832 21.816 5.32 19.768 5.32C17.72 5.32 16.24 5.832 15.328 6.856C14.656 7.608 14.32 8.608 14.32 9.856V10.168C14.32 10.696 14.4 11.224 14.56 11.752C14.736 12.28 15.008 12.76 15.376 13.192C16.288 14.248 17.752 14.776 19.768 14.776C21.816 14.776 23.296 14.248 24.208 13.192C24.88 12.392 25.216 11.384 25.216 10.168V9.856ZM39.9925 13.48V19H34.2565V1.144H46.8325C49.7285 1.144 51.8165 1.704 53.0965 2.824C54.1845 3.784 54.7285 5.216 54.7285 7.12V7.408C54.7285 9.328 54.1765 10.776 53.0725 11.752C51.7605 12.904 49.6805 13.48 46.8325 13.48H39.9925ZM39.9925 9.208H46.3525C47.9685 9.208 48.7765 8.584 48.7765 7.336V7.264C48.7765 6.048 47.9685 5.44 46.3525 5.44H39.9925V9.208ZM63.9098 9.616H72.1418V13.984H63.9098V9.616ZM93.6641 0.855999C96.4481 0.855999 98.7361 1.336 100.528 2.296C102.016 3.112 103.136 4.24 103.888 5.68C104.48 6.864 104.776 8.192 104.776 9.664V10.384C104.776 11.424 104.6 12.456 104.248 13.48C103.912 14.504 103.36 15.424 102.592 16.24C100.672 18.272 97.6961 19.288 93.6641 19.288H92.5841C89.8001 19.288 87.5201 18.792 85.7441 17.8C84.2081 16.952 83.0881 15.8 82.3841 14.344C81.7761 13.144 81.4721 11.824 81.4721 10.384V9.664C81.4721 8.176 81.7761 6.848 82.3841 5.68C83.1041 4.24 84.2241 3.112 85.7441 2.296C87.5041 1.336 89.7841 0.855999 92.5841 0.855999H93.6641ZM98.8001 9.856C98.8001 8.608 98.4561 7.608 97.7681 6.856C96.8241 5.832 95.2801 5.32 93.1361 5.32C91.0241 5.32 89.4801 5.832 88.5041 6.856C87.8001 7.608 87.4481 8.608 87.4481 9.856V10.168C87.4481 11.4 87.8161 12.408 88.5521 13.192C89.5281 14.248 91.0561 14.776 93.1361 14.776C95.2801 14.776 96.8241 14.248 97.7681 13.192C98.4561 12.424 98.8001 11.416 98.8001 10.168V9.856ZM107.831 19V1.144H127.511V19H121.775V5.392H113.567V19H107.831ZM137.094 6.688H144.054C146.918 6.688 148.974 7.248 150.222 8.368C151.31 9.344 151.854 10.784 151.854 12.688V12.952C151.854 14.824 151.302 16.256 150.198 17.248C148.902 18.416 146.854 19 144.054 19H131.358V1.144H137.094V6.688ZM143.574 14.752C144.326 14.752 144.894 14.592 145.278 14.272C145.678 13.936 145.878 13.48 145.878 12.904V12.736C145.878 12.176 145.678 11.736 145.278 11.416C144.894 11.096 144.326 10.936 143.574 10.936H137.094V14.752H143.574ZM160.542 1.144V19H154.806V1.144H160.542ZM170.401 19V5.656H163.369V1.144H183.145V5.656H176.113V19H170.401Z" fill="#01AAAD"/>
</svg>
